<?xml version="1.0"?>
<svg xmlns="http://www.w3.org/2000/svg" id="Capa_1" enable-background="new 0 0 371.495 371.495" height="512px" viewBox="0 0 371.495 371.495" width="512px" class=""><g><g><path d="m0 171.954h371.495v27.588h-371.495z" fill="#2f4859" data-original="#2F4859" class="active-path" style="fill:#F7BB07" data-old_color="#2f4859"/><path d="m258.652 115.654h32.986v140.188h-32.986z" fill="#4d5c7d" data-original="#4D5C7D" class="" style="fill:#F7BB07" data-old_color="#4d5c7d"/><path d="m263.874 115.654h22.543v140.188h-22.543z" fill="#64798a" data-original="#64798A" class="" style="fill:#F7BB07" data-old_color="#64798a"/><path d="m291.201 133.681h32.986v104.133h-32.986z" fill="#474c5b" data-original="#474C5B" class="" style="fill:#F7BB07" data-old_color="#474c5b"/><path d="m296.423 133.681h22.543v104.133h-22.543z" fill="#64798a" data-original="#64798A" class="" style="fill:#F7BB07" data-old_color="#64798a"/><path d="m323.751 153.467h32.986v64.561h-32.986z" fill="#4d5c7d" data-original="#4D5C7D" class="" style="fill:#F7BB07" data-old_color="#4d5c7d"/><path d="m328.973 153.467h22.543v64.561h-22.543z" fill="#64798a" data-original="#64798A" class="" style="fill:#F7BB07" data-old_color="#64798a"/><path d="m110.716 255.841h-32.986v-140.187h32.986z" fill="#4d5c7d" data-original="#4D5C7D" class="" style="fill:#F7BB07" data-old_color="#4d5c7d"/><path d="m105.494 255.841h-22.542v-140.187h22.543v140.187z" fill="#64798a" data-original="#64798A" class="" style="fill:#F7BB07" data-old_color="#64798a"/><path d="m78.167 237.814h-32.986v-104.133h32.986z" fill="#474c5b" data-original="#474C5B" class="" style="fill:#F7BB07" data-old_color="#474c5b"/><path d="m72.945 237.814h-22.543v-104.133h22.543z" fill="#64798a" data-original="#64798A" class="" style="fill:#F7BB07" data-old_color="#64798a"/><g transform="matrix(-1 0 0 -1 68.307 140)"><path d="m22.69-78.028h32.986v64.561h-32.986z" fill="#4d5c7d" data-original="#4D5C7D" class="" style="fill:#F7BB07" data-old_color="#4d5c7d"/><path d="m27.912-78.028h22.543v64.561h-22.543z" fill="#64798a" data-original="#64798A" class="" style="fill:#F7BB07" data-old_color="#64798a"/></g></g></g> </svg>
